<svg xmlns="http://www.w3.org/2000/svg" viewBox="0 0 100 100" preserveAspectRatio="xMidYMid" width="198" height="198" style="shape-rendering: auto; display: block; background: rgba(255, 255, 255, 0);" xmlns:xlink="http://www.w3.org/1999/xlink"><g><g transform="rotate(0 50 50)">
  <rect fill="#4ec6f6" height="8" width="6" ry="2.88" rx="2.88" y="11" x="47">
    <animate repeatCount="indefinite" begin="-0.8004926108374383s" dur="0.8620689655172413s" keyTimes="0;1" values="1;0" attributeName="opacity"></animate>
  </rect>
</g><g transform="rotate(25.714285714285715 50 50)">
  <rect fill="#4ec6f6" height="8" width="6" ry="2.88" rx="2.88" y="11" x="47">
    <animate repeatCount="indefinite" begin="-0.7389162561576353s" dur="0.8620689655172413s" keyTimes="0;1" values="1;0" attributeName="opacity"></animate>
  </rect>
</g><g transform="rotate(51.42857142857143 50 50)">
  <rect fill="#4ec6f6" height="8" width="6" ry="2.88" rx="2.88" y="11" x="47">
    <animate repeatCount="indefinite" begin="-0.6773399014778324s" dur="0.8620689655172413s" keyTimes="0;1" values="1;0" attributeName="opacity"></animate>
  </rect>
</g><g transform="rotate(77.14285714285714 50 50)">
  <rect fill="#4ec6f6" height="8" width="6" ry="2.88" rx="2.88" y="11" x="47">
    <animate repeatCount="indefinite" begin="-0.6157635467980295s" dur="0.8620689655172413s" keyTimes="0;1" values="1;0" attributeName="opacity"></animate>
  </rect>
</g><g transform="rotate(102.85714285714286 50 50)">
  <rect fill="#4ec6f6" height="8" width="6" ry="2.88" rx="2.88" y="11" x="47">
    <animate repeatCount="indefinite" begin="-0.5541871921182265s" dur="0.8620689655172413s" keyTimes="0;1" values="1;0" attributeName="opacity"></animate>
  </rect>
</g><g transform="rotate(128.57142857142858 50 50)">
  <rect fill="#4ec6f6" height="8" width="6" ry="2.88" rx="2.88" y="11" x="47">
    <animate repeatCount="indefinite" begin="-0.4926108374384236s" dur="0.8620689655172413s" keyTimes="0;1" values="1;0" attributeName="opacity"></animate>
  </rect>
</g><g transform="rotate(154.28571428571428 50 50)">
  <rect fill="#4ec6f6" height="8" width="6" ry="2.88" rx="2.88" y="11" x="47">
    <animate repeatCount="indefinite" begin="-0.43103448275862066s" dur="0.8620689655172413s" keyTimes="0;1" values="1;0" attributeName="opacity"></animate>
  </rect>
</g><g transform="rotate(180 50 50)">
  <rect fill="#4ec6f6" height="8" width="6" ry="2.88" rx="2.88" y="11" x="47">
    <animate repeatCount="indefinite" begin="-0.36945812807881767s" dur="0.8620689655172413s" keyTimes="0;1" values="1;0" attributeName="opacity"></animate>
  </rect>
</g><g transform="rotate(205.71428571428572 50 50)">
  <rect fill="#4ec6f6" height="8" width="6" ry="2.88" rx="2.88" y="11" x="47">
    <animate repeatCount="indefinite" begin="-0.30788177339901474s" dur="0.8620689655172413s" keyTimes="0;1" values="1;0" attributeName="opacity"></animate>
  </rect>
</g><g transform="rotate(231.42857142857142 50 50)">
  <rect fill="#4ec6f6" height="8" width="6" ry="2.88" rx="2.88" y="11" x="47">
    <animate repeatCount="indefinite" begin="-0.2463054187192118s" dur="0.8620689655172413s" keyTimes="0;1" values="1;0" attributeName="opacity"></animate>
  </rect>
</g><g transform="rotate(257.14285714285717 50 50)">
  <rect fill="#4ec6f6" height="8" width="6" ry="2.88" rx="2.88" y="11" x="47">
    <animate repeatCount="indefinite" begin="-0.18472906403940884s" dur="0.8620689655172413s" keyTimes="0;1" values="1;0" attributeName="opacity"></animate>
  </rect>
</g><g transform="rotate(282.85714285714283 50 50)">
  <rect fill="#4ec6f6" height="8" width="6" ry="2.88" rx="2.88" y="11" x="47">
    <animate repeatCount="indefinite" begin="-0.1231527093596059s" dur="0.8620689655172413s" keyTimes="0;1" values="1;0" attributeName="opacity"></animate>
  </rect>
</g><g transform="rotate(308.57142857142856 50 50)">
  <rect fill="#4ec6f6" height="8" width="6" ry="2.88" rx="2.88" y="11" x="47">
    <animate repeatCount="indefinite" begin="-0.06157635467980295s" dur="0.8620689655172413s" keyTimes="0;1" values="1;0" attributeName="opacity"></animate>
  </rect>
</g><g transform="rotate(334.2857142857143 50 50)">
  <rect fill="#4ec6f6" height="8" width="6" ry="2.88" rx="2.88" y="11" x="47">
    <animate repeatCount="indefinite" begin="0s" dur="0.8620689655172413s" keyTimes="0;1" values="1;0" attributeName="opacity"></animate>
  </rect>
</g><g></g></g><!-- [ldio] generated by https://loading.io --></svg>